{
	"asset":{
		"generator":"Khronos glTF Blender I/O v3.5.30",
		"version":"2.0"
	},
	"extensionsUsed":[
		"KHR_materials_specular",
		"KHR_materials_ior"
	],
	"scene":0,
	"scenes":[
		{
			"name":"Scene",
			"nodes":[
				3
			]
		}
	],
	"nodes":[
		{
			"mesh":0,
			"name":"Cube.007",
			"scale":[
				1.0422866344451904,
				1.0422866344451904,
				1.0422866344451904
			],
			"translation":[
				-0.014301002025604248,
				0.08157181739807129,
				0.2900775074958801
			]
		},
		{
			"mesh":1,
			"name":"Cube.008",
			"rotation":[
				0.6017312407493591,
				0,
				0,
				0.7986986637115479
			],
			"scale":[
				0.9739659428596497,
				1.04228675365448,
				1.04228675365448
			],
			"translation":[
				0.0008895993232727051,
				0.6016152501106262,
				-0.17255467176437378
			]
		},
		{
			"mesh":2,
			"name":"Cube.033",
			"translation":[
				0.013394355773925781,
				-0.3027152717113495,
				0.11893083155155182
			]
		},
		{
			"children":[
				0,
				1,
				2
			],
			"mesh":3,
			"name":"Cube.009",
			"scale":[
				0.5195919871330261,
				0.5195919871330261,
				0.5195919871330261
			]
		}
	],
	"materials":[
		{
			"doubleSided":true,
			"extensions":{
				"KHR_materials_specular":{
					"specularColorFactor":[
						0.3454339598341998,
						0.3454339598341998,
						0.3454339598341998
					]
				},
				"KHR_materials_ior":{
					"ior":1.4500000476837158
				}
			},
			"name":"Material.002",
			"pbrMetallicRoughness":{
				"baseColorTexture":{
					"index":0
				},
				"metallicFactor":0
			}
		},
		{
			"doubleSided":true,
			"name":"Material.011",
			"pbrMetallicRoughness":{
				"baseColorTexture":{
					"index":1
				},
				"metallicFactor":0,
				"roughnessFactor":0.5
			}
		}
	],
	"meshes":[
		{
			"name":"Cube.060",
			"primitives":[
				{
					"attributes":{
						"POSITION":0,
						"TEXCOORD_0":1,
						"NORMAL":2
					},
					"indices":3,
					"material":0
				}
			]
		},
		{
			"name":"Cube.061",
			"primitives":[
				{
					"attributes":{
						"POSITION":4,
						"TEXCOORD_0":5,
						"NORMAL":6
					},
					"indices":7,
					"material":0
				}
			]
		},
		{
			"name":"Cube.063",
			"primitives":[
				{
					"attributes":{
						"POSITION":8,
						"TEXCOORD_0":9,
						"NORMAL":10
					},
					"indices":11,
					"material":1
				}
			]
		},
		{
			"name":"Cube.062",
			"primitives":[
				{
					"attributes":{
						"POSITION":12,
						"TEXCOORD_0":13,
						"NORMAL":14
					},
					"indices":15,
					"material":0
				}
			]
		}
	],
	"textures":[
		{
			"sampler":0,
			"source":0
		},
		{
			"sampler":0,
			"source":1
		}
	],
	"images":[
		{
			"bufferView":4,
			"mimeType":"image/png",
			"name":"blueClothAlbedo"
		},
		{
			"bufferView":13,
			"mimeType":"image/png",
			"name":"WoodAlbedo"
		}
	],
	"accessors":[
		{
			"bufferView":0,
			"componentType":5126,
			"count":10440,
			"max":[
				0.8145546913146973,
				0.2155684530735016,
				0.6036099791526794
			],
			"min":[
				-0.8140440583229065,
				-0.08794263005256653,
				-0.5765009522438049
			],
			"type":"VEC3"
		},
		{
			"bufferView":1,
			"componentType":5126,
			"count":10440,
			"type":"VEC2"
		},
		{
			"bufferView":2,
			"componentType":5126,
			"count":10440,
			"type":"VEC3"
		},
		{
			"bufferView":3,
			"componentType":5123,
			"count":11922,
			"type":"SCALAR"
		},
		{
			"bufferView":5,
			"componentType":5126,
			"count":13570,
			"max":[
				0.8865388035774231,
				0.31954699754714966,
				0.3966255486011505
			],
			"min":[
				-0.8729650974273682,
				-0.19579124450683594,
				-0.3967203199863434
			],
			"type":"VEC3"
		},
		{
			"bufferView":6,
			"componentType":5126,
			"count":13570,
			"type":"VEC2"
		},
		{
			"bufferView":7,
			"componentType":5126,
			"count":13570,
			"type":"VEC3"
		},
		{
			"bufferView":8,
			"componentType":5123,
			"count":15324,
			"type":"SCALAR"
		},
		{
			"bufferView":9,
			"componentType":5126,
			"count":3504,
			"max":[
				0.8126252293586731,
				0.08101359009742737,
				0.7405282258987427
			],
			"min":[
				-0.826796293258667,
				-0.08101385831832886,
				-0.7399699687957764
			],
			"type":"VEC3"
		},
		{
			"bufferView":10,
			"componentType":5126,
			"count":3504,
			"type":"VEC2"
		},
		{
			"bufferView":11,
			"componentType":5126,
			"count":3504,
			"type":"VEC3"
		},
		{
			"bufferView":12,
			"componentType":5123,
			"count":3666,
			"type":"SCALAR"
		},
		{
			"bufferView":14,
			"componentType":5126,
			"count":5363,
			"max":[
				0.8386459946632385,
				0.4647188186645508,
				0.8921599388122559
			],
			"min":[
				-0.8379479646682739,
				-0.23024585843086243,
				-0.6579464673995972
			],
			"type":"VEC3"
		},
		{
			"bufferView":15,
			"componentType":5126,
			"count":5363,
			"type":"VEC2"
		},
		{
			"bufferView":16,
			"componentType":5126,
			"count":5363,
			"type":"VEC3"
		},
		{
			"bufferView":17,
			"componentType":5123,
			"count":5766,
			"type":"SCALAR"
		}
	],
	"bufferViews":[
		{
			"buffer":0,
			"byteLength":125280,
			"byteOffset":0,
			"target":34962
		},
		{
			"buffer":0,
			"byteLength":83520,
			"byteOffset":125280,
			"target":34962
		},
		{
			"buffer":0,
			"byteLength":125280,
			"byteOffset":208800,
			"target":34962
		},
		{
			"buffer":0,
			"byteLength":23844,
			"byteOffset":334080,
			"target":34963
		},
		{
			"buffer":0,
			"byteLength":203496,
			"byteOffset":357924
		},
		{
			"buffer":0,
			"byteLength":162840,
			"byteOffset":561420,
			"target":34962
		},
		{
			"buffer":0,
			"byteLength":108560,
			"byteOffset":724260,
			"target":34962
		},
		{
			"buffer":0,
			"byteLength":162840,
			"byteOffset":832820,
			"target":34962
		},
		{
			"buffer":0,
			"byteLength":30648,
			"byteOffset":995660,
			"target":34963
		},
		{
			"buffer":0,
			"byteLength":42048,
			"byteOffset":1026308,
			"target":34962
		},
		{
			"buffer":0,
			"byteLength":28032,
			"byteOffset":1068356,
			"target":34962
		},
		{
			"buffer":0,
			"byteLength":42048,
			"byteOffset":1096388,
			"target":34962
		},
		{
			"buffer":0,
			"byteLength":7332,
			"byteOffset":1138436,
			"target":34963
		},
		{
			"buffer":0,
			"byteLength":53030,
			"byteOffset":1145768
		},
		{
			"buffer":0,
			"byteLength":64356,
			"byteOffset":1198800,
			"target":34962
		},
		{
			"buffer":0,
			"byteLength":42904,
			"byteOffset":1263156,
			"target":34962
		},
		{
			"buffer":0,
			"byteLength":64356,
			"byteOffset":1306060,
			"target":34962
		},
		{
			"buffer":0,
			"byteLength":11532,
			"byteOffset":1370416,
			"target":34963
		}
	],
	"samplers":[
		{
			"magFilter":9729,
			"minFilter":9987
		}
	],
	"buffers":[
		{
			"byteLength":1381948,
			"uri":"data:application/octet-stream;base64,"
		}
	]
}
