{
	"asset":{
		"generator":"Khronos glTF Blender I/O v3.5.30",
		"version":"2.0"
	},
	"extensionsUsed":[
		"KHR_materials_specular",
		"KHR_materials_ior"
	],
	"scene":0,
	"scenes":[
		{
			"name":"Scene",
			"nodes":[
				4
			]
		}
	],
	"nodes":[
		{
			"mesh":0,
			"name":"Cube.006",
			"rotation":[
				0.6015868782997131,
				0.01749109849333763,
				-0.013177607208490372,
				0.7985071539878845
			],
			"scale":[
				0.9871307015419006,
				1.0422865152359009,
				1.0422865152359009
			],
			"translation":[
				0.2591872215270996,
				0.5925201773643494,
				-0.2088022232055664
			]
		},
		{
			"mesh":1,
			"name":"Cube.045",
			"scale":[
				1.0422866344451904,
				1.0422866344451904,
				1.0422866344451904
			],
			"translation":[
				0.25115156173706055,
				0.1182318925857544,
				0.23612022399902344
			]
		},
		{
			"mesh":2,
			"name":"Cube.046",
			"rotation":[
				0.4228458106517792,
				0.5682508945465088,
				-0.42811423540115356,
				0.5612580180168152
			],
			"scale":[
				0.9871305823326111,
				1.0422865152359009,
				1.0422866344451904
			],
			"translation":[
				-0.2068786323070526,
				0.5921840071678162,
				0.3491477966308594
			]
		},
		{
			"mesh":3,
			"name":"Cube.047",
			"rotation":[
				0,
				0.7071066498756409,
				0,
				0.70710688829422
			],
			"translation":[
				0.05829477310180664,
				-0.3344784080982208,
				0.05960559844970703
			]
		},
		{
			"children":[
				0,
				1,
				2,
				3
			],
			"mesh":4,
			"name":"Cube.044",
			"scale":[
				0.5195919871330261,
				0.5195919871330261,
				0.5195919871330261
			]
		}
	],
	"materials":[
		{
			"doubleSided":true,
			"extensions":{
				"KHR_materials_specular":{
					"specularColorFactor":[
						0.3454339598341998,
						0.3454339598341998,
						0.3454339598341998
					]
				},
				"KHR_materials_ior":{
					"ior":1.4500000476837158
				}
			},
			"name":"Material.005",
			"pbrMetallicRoughness":{
				"baseColorTexture":{
					"index":0
				},
				"metallicFactor":0
			}
		},
		{
			"doubleSided":true,
			"name":"Material.006",
			"pbrMetallicRoughness":{
				"baseColorTexture":{
					"index":1
				},
				"metallicFactor":0,
				"roughnessFactor":0.5
			}
		}
	],
	"meshes":[
		{
			"name":"Cube.059",
			"primitives":[
				{
					"attributes":{
						"POSITION":0,
						"TEXCOORD_0":1,
						"NORMAL":2
					},
					"indices":3,
					"material":0
				}
			]
		},
		{
			"name":"Cube.053",
			"primitives":[
				{
					"attributes":{
						"POSITION":4,
						"TEXCOORD_0":5,
						"NORMAL":6
					},
					"indices":7,
					"material":0
				}
			]
		},
		{
			"name":"Cube.054",
			"primitives":[
				{
					"attributes":{
						"POSITION":8,
						"TEXCOORD_0":9,
						"NORMAL":10
					},
					"indices":11,
					"material":0
				}
			]
		},
		{
			"name":"Cube.055",
			"primitives":[
				{
					"attributes":{
						"POSITION":12,
						"TEXCOORD_0":13,
						"NORMAL":14
					},
					"indices":15,
					"material":1
				}
			]
		},
		{
			"name":"Cube.052",
			"primitives":[
				{
					"attributes":{
						"POSITION":16,
						"TEXCOORD_0":17,
						"NORMAL":18
					},
					"indices":19,
					"material":0
				}
			]
		}
	],
	"textures":[
		{
			"sampler":0,
			"source":0
		},
		{
			"sampler":0,
			"source":1
		}
	],
	"images":[
		{
			"bufferView":4,
			"mimeType":"image/png",
			"name":"blueClothAlbedo"
		},
		{
			"bufferView":17,
			"mimeType":"image/png",
			"name":"WoodAlbedo"
		}
	],
	"accessors":[
		{
			"bufferView":0,
			"componentType":5126,
			"count":13584,
			"max":[
				0.6061862111091614,
				0.25420987606048584,
				0.4014291763305664
			],
			"min":[
				-0.6188103556632996,
				-0.2605697512626648,
				-0.39406201243400574
			],
			"type":"VEC3"
		},
		{
			"bufferView":1,
			"componentType":5126,
			"count":13584,
			"type":"VEC2"
		},
		{
			"bufferView":2,
			"componentType":5126,
			"count":13584,
			"type":"VEC3"
		},
		{
			"bufferView":3,
			"componentType":5123,
			"count":15324,
			"type":"SCALAR"
		},
		{
			"bufferView":5,
			"componentType":5126,
			"count":10448,
			"max":[
				0.5437125563621521,
				0.1499105989933014,
				0.5782588720321655
			],
			"min":[
				-0.5450052618980408,
				-0.15360039472579956,
				-0.5747438073158264
			],
			"type":"VEC3"
		},
		{
			"bufferView":6,
			"componentType":5126,
			"count":10448,
			"type":"VEC2"
		},
		{
			"bufferView":7,
			"componentType":5126,
			"count":10448,
			"type":"VEC3"
		},
		{
			"bufferView":8,
			"componentType":5123,
			"count":11922,
			"type":"SCALAR"
		},
		{
			"bufferView":9,
			"componentType":5126,
			"count":13586,
			"max":[
				0.49813106656074524,
				0.25416332483291626,
				0.40038350224494934
			],
			"min":[
				-0.4989810883998871,
				-0.2616025507450104,
				-0.3935182988643646
			],
			"type":"VEC3"
		},
		{
			"bufferView":10,
			"componentType":5126,
			"count":13586,
			"type":"VEC2"
		},
		{
			"bufferView":11,
			"componentType":5126,
			"count":13586,
			"type":"VEC3"
		},
		{
			"bufferView":12,
			"componentType":5123,
			"count":15324,
			"type":"SCALAR"
		},
		{
			"bufferView":13,
			"componentType":5126,
			"count":976,
			"max":[
				0.7313523888587952,
				0.08084630966186523,
				0.7406167984008789
			],
			"min":[
				-0.7447497844696045,
				-0.08082577586174011,
				-0.7398229837417603
			],
			"type":"VEC3"
		},
		{
			"bufferView":14,
			"componentType":5126,
			"count":976,
			"type":"VEC2"
		},
		{
			"bufferView":15,
			"componentType":5126,
			"count":976,
			"type":"VEC3"
		},
		{
			"bufferView":16,
			"componentType":5123,
			"count":1008,
			"type":"SCALAR"
		},
		{
			"bufferView":18,
			"componentType":5126,
			"count":7104,
			"max":[
				0.8558381199836731,
				0.4328080415725708,
				0.8548051118850708
			],
			"min":[
				-0.763489305973053,
				-0.3346595764160156,
				-0.7741771936416626
			],
			"type":"VEC3"
		},
		{
			"bufferView":19,
			"componentType":5126,
			"count":7104,
			"type":"VEC2"
		},
		{
			"bufferView":20,
			"componentType":5126,
			"count":7104,
			"type":"VEC3"
		},
		{
			"bufferView":21,
			"componentType":5123,
			"count":7536,
			"type":"SCALAR"
		}
	],
	"bufferViews":[
		{
			"buffer":0,
			"byteLength":163008,
			"byteOffset":0,
			"target":34962
		},
		{
			"buffer":0,
			"byteLength":108672,
			"byteOffset":163008,
			"target":34962
		},
		{
			"buffer":0,
			"byteLength":163008,
			"byteOffset":271680,
			"target":34962
		},
		{
			"buffer":0,
			"byteLength":30648,
			"byteOffset":434688,
			"target":34963
		},
		{
			"buffer":0,
			"byteLength":203496,
			"byteOffset":465336
		},
		{
			"buffer":0,
			"byteLength":125376,
			"byteOffset":668832,
			"target":34962
		},
		{
			"buffer":0,
			"byteLength":83584,
			"byteOffset":794208,
			"target":34962
		},
		{
			"buffer":0,
			"byteLength":125376,
			"byteOffset":877792,
			"target":34962
		},
		{
			"buffer":0,
			"byteLength":23844,
			"byteOffset":1003168,
			"target":34963
		},
		{
			"buffer":0,
			"byteLength":163032,
			"byteOffset":1027012,
			"target":34962
		},
		{
			"buffer":0,
			"byteLength":108688,
			"byteOffset":1190044,
			"target":34962
		},
		{
			"buffer":0,
			"byteLength":163032,
			"byteOffset":1298732,
			"target":34962
		},
		{
			"buffer":0,
			"byteLength":30648,
			"byteOffset":1461764,
			"target":34963
		},
		{
			"buffer":0,
			"byteLength":11712,
			"byteOffset":1492412,
			"target":34962
		},
		{
			"buffer":0,
			"byteLength":7808,
			"byteOffset":1504124,
			"target":34962
		},
		{
			"buffer":0,
			"byteLength":11712,
			"byteOffset":1511932,
			"target":34962
		},
		{
			"buffer":0,
			"byteLength":2016,
			"byteOffset":1523644,
			"target":34963
		},
		{
			"buffer":0,
			"byteLength":53030,
			"byteOffset":1525660
		},
		{
			"buffer":0,
			"byteLength":85248,
			"byteOffset":1578692,
			"target":34962
		},
		{
			"buffer":0,
			"byteLength":56832,
			"byteOffset":1663940,
			"target":34962
		},
		{
			"buffer":0,
			"byteLength":85248,
			"byteOffset":1720772,
			"target":34962
		},
		{
			"buffer":0,
			"byteLength":15072,
			"byteOffset":1806020,
			"target":34963
		}
	],
	"samplers":[
		{
			"magFilter":9729,
			"minFilter":9987
		}
	],
	"buffers":[
		{
			"byteLength":1821092,
			"uri":"data:application/octet-stream;base64,"
		}
	]
}
