{
	"asset":{
		"generator":"Khronos glTF Blender I/O v3.5.30",
		"version":"2.0"
	},
	"extensionsUsed":[
		"KHR_materials_specular",
		"KHR_materials_ior"
	],
	"scene":0,
	"scenes":[
		{
			"name":"Scene",
			"nodes":[
				3
			]
		}
	],
	"nodes":[
		{
			"mesh":0,
			"name":"Cube.025",
			"translation":[
				0.09417152404785156,
				-0.3326888978481293,
				0.08306543529033661
			]
		},
		{
			"mesh":1,
			"name":"Cube.027",
			"rotation":[
				0.6017312407493591,
				0,
				0,
				0.7986986637115479
			],
			"scale":[
				0.9509194493293762,
				1.04228675365448,
				1.04228675365448
			],
			"translation":[
				0.16783758997917175,
				0.5716306567192078,
				-0.23459738492965698
			]
		},
		{
			"mesh":2,
			"name":"Cube.035",
			"scale":[
				1.0422866344451904,
				1.0422866344451904,
				1.0422866344451904
			],
			"translation":[
				0.17106115818023682,
				0.05158716440200806,
				0.2269592583179474
			]
		},
		{
			"children":[
				0,
				1,
				2
			],
			"mesh":3,
			"name":"Cube.028",
			"scale":[
				0.5195919871330261,
				0.5195918679237366,
				0.5195918679237366
			]
		}
	],
	"materials":[
		{
			"doubleSided":true,
			"name":"Material.008",
			"pbrMetallicRoughness":{
				"baseColorTexture":{
					"index":0
				},
				"metallicFactor":0,
				"roughnessFactor":0.5
			}
		},
		{
			"doubleSided":true,
			"extensions":{
				"KHR_materials_specular":{
					"specularColorFactor":[
						0.3454339598341998,
						0.3454339598341998,
						0.3454339598341998
					]
				},
				"KHR_materials_ior":{
					"ior":1.4500000476837158
				}
			},
			"name":"Material.007",
			"pbrMetallicRoughness":{
				"baseColorTexture":{
					"index":1
				},
				"metallicFactor":0
			}
		}
	],
	"meshes":[
		{
			"name":"Cube.023",
			"primitives":[
				{
					"attributes":{
						"POSITION":0,
						"TEXCOORD_0":1,
						"NORMAL":2
					},
					"indices":3,
					"material":0
				}
			]
		},
		{
			"name":"Cube.026",
			"primitives":[
				{
					"attributes":{
						"POSITION":4,
						"TEXCOORD_0":5,
						"NORMAL":6
					},
					"indices":7,
					"material":1
				}
			]
		},
		{
			"name":"Cube.064",
			"primitives":[
				{
					"attributes":{
						"POSITION":8,
						"TEXCOORD_0":9,
						"NORMAL":10
					},
					"indices":11,
					"material":1
				}
			]
		},
		{
			"name":"Cube.028",
			"primitives":[
				{
					"attributes":{
						"POSITION":12,
						"TEXCOORD_0":13,
						"NORMAL":14
					},
					"indices":15,
					"material":1
				}
			]
		}
	],
	"textures":[
		{
			"sampler":0,
			"source":0
		},
		{
			"sampler":0,
			"source":1
		}
	],
	"images":[
		{
			"bufferView":4,
			"mimeType":"image/png",
			"name":"WoodAlbedo"
		},
		{
			"bufferView":9,
			"mimeType":"image/png",
			"name":"blueClothAlbedo"
		}
	],
	"accessors":[
		{
			"bufferView":0,
			"componentType":5126,
			"count":976,
			"max":[
				0.9049357771873474,
				0.08084630966186523,
				0.7406168580055237
			],
			"min":[
				-0.9224305748939514,
				-0.08082577586174011,
				-0.739823043346405
			],
			"type":"VEC3"
		},
		{
			"bufferView":1,
			"componentType":5126,
			"count":976,
			"type":"VEC2"
		},
		{
			"bufferView":2,
			"componentType":5126,
			"count":976,
			"type":"VEC3"
		},
		{
			"bufferView":3,
			"componentType":5123,
			"count":1008,
			"type":"SCALAR"
		},
		{
			"bufferView":5,
			"componentType":5126,
			"count":5600,
			"max":[
				0.8867977857589722,
				0.3196493983268738,
				0.3965398967266083
			],
			"min":[
				-0.8858050107955933,
				-0.1959991455078125,
				-0.39704591035842896
			],
			"type":"VEC3"
		},
		{
			"bufferView":6,
			"componentType":5126,
			"count":5600,
			"type":"VEC2"
		},
		{
			"bufferView":7,
			"componentType":5126,
			"count":5600,
			"type":"VEC3"
		},
		{
			"bufferView":8,
			"componentType":5123,
			"count":5958,
			"type":"SCALAR"
		},
		{
			"bufferView":10,
			"componentType":5126,
			"count":10440,
			"max":[
				0.8145546913146973,
				0.2155684530735016,
				0.6036099791526794
			],
			"min":[
				-0.8140440583229065,
				-0.08794263005256653,
				-0.5765009522438049
			],
			"type":"VEC3"
		},
		{
			"bufferView":11,
			"componentType":5126,
			"count":10440,
			"type":"VEC2"
		},
		{
			"bufferView":12,
			"componentType":5126,
			"count":10440,
			"type":"VEC3"
		},
		{
			"bufferView":13,
			"componentType":5123,
			"count":11922,
			"type":"SCALAR"
		},
		{
			"bufferView":14,
			"componentType":5126,
			"count":5789,
			"max":[
				1.0097318887710571,
				0.4347165822982788,
				0.8565102815628052
			],
			"min":[
				-0.8864148259162903,
				-0.26167598366737366,
				-0.6935568451881409
			],
			"type":"VEC3"
		},
		{
			"bufferView":15,
			"componentType":5126,
			"count":5789,
			"type":"VEC2"
		},
		{
			"bufferView":16,
			"componentType":5126,
			"count":5789,
			"type":"VEC3"
		},
		{
			"bufferView":17,
			"componentType":5123,
			"count":5928,
			"type":"SCALAR"
		}
	],
	"bufferViews":[
		{
			"buffer":0,
			"byteLength":11712,
			"byteOffset":0,
			"target":34962
		},
		{
			"buffer":0,
			"byteLength":7808,
			"byteOffset":11712,
			"target":34962
		},
		{
			"buffer":0,
			"byteLength":11712,
			"byteOffset":19520,
			"target":34962
		},
		{
			"buffer":0,
			"byteLength":2016,
			"byteOffset":31232,
			"target":34963
		},
		{
			"buffer":0,
			"byteLength":53030,
			"byteOffset":33248
		},
		{
			"buffer":0,
			"byteLength":67200,
			"byteOffset":86280,
			"target":34962
		},
		{
			"buffer":0,
			"byteLength":44800,
			"byteOffset":153480,
			"target":34962
		},
		{
			"buffer":0,
			"byteLength":67200,
			"byteOffset":198280,
			"target":34962
		},
		{
			"buffer":0,
			"byteLength":11916,
			"byteOffset":265480,
			"target":34963
		},
		{
			"buffer":0,
			"byteLength":203496,
			"byteOffset":277396
		},
		{
			"buffer":0,
			"byteLength":125280,
			"byteOffset":480892,
			"target":34962
		},
		{
			"buffer":0,
			"byteLength":83520,
			"byteOffset":606172,
			"target":34962
		},
		{
			"buffer":0,
			"byteLength":125280,
			"byteOffset":689692,
			"target":34962
		},
		{
			"buffer":0,
			"byteLength":23844,
			"byteOffset":814972,
			"target":34963
		},
		{
			"buffer":0,
			"byteLength":69468,
			"byteOffset":838816,
			"target":34962
		},
		{
			"buffer":0,
			"byteLength":46312,
			"byteOffset":908284,
			"target":34962
		},
		{
			"buffer":0,
			"byteLength":69468,
			"byteOffset":954596,
			"target":34962
		},
		{
			"buffer":0,
			"byteLength":11856,
			"byteOffset":1024064,
			"target":34963
		}
	],
	"samplers":[
		{
			"magFilter":9729,
			"minFilter":9987
		}
	],
	"buffers":[
		{
			"byteLength":1035920,
			"uri":"data:application/octet-stream;base64,"
		}
	]
}
