{
	"asset":{
		"generator":"Khronos glTF Blender I/O v3.5.30",
		"version":"2.0"
	},
	"extensionsUsed":[
		"KHR_materials_specular",
		"KHR_materials_ior"
	],
	"scene":0,
	"scenes":[
		{
			"name":"Scene",
			"nodes":[
				4
			]
		}
	],
	"nodes":[
		{
			"mesh":0,
			"name":"Cube.034",
			"rotation":[
				0.42548826336860657,
				0.5647651553153992,
				-0.42548811435699463,
				0.564765453338623
			],
			"scale":[
				0.7242242097854614,
				1.0422865152359009,
				1.0422865152359009
			],
			"translation":[
				-0.9081732034683228,
				0.6099162101745605,
				0.22698049247264862
			]
		},
		{
			"mesh":1,
			"name":"Cube.040",
			"scale":[
				1.04228675365448,
				1.04228675365448,
				1.04228675365448
			],
			"translation":[
				-0.39185449481010437,
				0.1364084631204605,
				0.2551484704017639
			]
		},
		{
			"mesh":2,
			"name":"Cube.043",
			"rotation":[
				0,
				0.7071066498756409,
				0,
				0.70710688829422
			],
			"translation":[
				0.07696724683046341,
				-0.31632331013679504,
				0.07877491414546967
			]
		},
		{
			"mesh":3,
			"name":"Cube.048",
			"scale":[
				1.04228675365448,
				1.04228675365448,
				1.04228675365448
			],
			"translation":[
				0.8986981511116028,
				0.1364436000585556,
				0.2552896738052368
			]
		},
		{
			"children":[
				0,
				1,
				2,
				3
			],
			"mesh":4,
			"name":"Cube.038",
			"rotation":[
				0,
				-0.7071068286895752,
				0,
				0.7071067094802856
			],
			"scale":[
				0.5195920467376709,
				0.5195919871330261,
				0.5195920467376709
			],
			"translation":[
				0,
				0,
				0.3683352470397949
			]
		}
	],
	"materials":[
		{
			"doubleSided":true,
			"extensions":{
				"KHR_materials_specular":{
					"specularColorFactor":[
						0.3454339598341998,
						0.3454339598341998,
						0.3454339598341998
					]
				},
				"KHR_materials_ior":{
					"ior":1.4500000476837158
				}
			},
			"name":"Material.003",
			"pbrMetallicRoughness":{
				"baseColorTexture":{
					"index":0
				},
				"metallicFactor":0
			}
		},
		{
			"doubleSided":true,
			"name":"Material.004",
			"pbrMetallicRoughness":{
				"baseColorTexture":{
					"index":1
				},
				"metallicFactor":0,
				"roughnessFactor":0.5
			}
		}
	],
	"meshes":[
		{
			"name":"Cube.058",
			"primitives":[
				{
					"attributes":{
						"POSITION":0,
						"TEXCOORD_0":1,
						"NORMAL":2
					},
					"indices":3,
					"material":0
				}
			]
		},
		{
			"name":"Cube.049",
			"primitives":[
				{
					"attributes":{
						"POSITION":4,
						"TEXCOORD_0":5,
						"NORMAL":6
					},
					"indices":7,
					"material":0
				}
			]
		},
		{
			"name":"Cube.051",
			"primitives":[
				{
					"attributes":{
						"POSITION":8,
						"TEXCOORD_0":9,
						"NORMAL":10
					},
					"indices":11,
					"material":1
				}
			]
		},
		{
			"name":"Cube.057",
			"primitives":[
				{
					"attributes":{
						"POSITION":12,
						"TEXCOORD_0":13,
						"NORMAL":14
					},
					"indices":15,
					"material":0
				}
			]
		},
		{
			"name":"Cube.048",
			"primitives":[
				{
					"attributes":{
						"POSITION":16,
						"TEXCOORD_0":17,
						"NORMAL":18
					},
					"indices":19,
					"material":0
				}
			]
		}
	],
	"textures":[
		{
			"sampler":0,
			"source":0
		},
		{
			"sampler":0,
			"source":1
		}
	],
	"images":[
		{
			"bufferView":4,
			"mimeType":"image/png",
			"name":"blueClothAlbedo"
		},
		{
			"bufferView":13,
			"mimeType":"image/png",
			"name":"WoodAlbedo"
		}
	],
	"accessors":[
		{
			"bufferView":0,
			"componentType":5126,
			"count":5598,
			"max":[
				0.8822884559631348,
				0.25401636958122253,
				0.3995839059352875
			],
			"min":[
				-0.8903143405914307,
				-0.26163217425346375,
				-0.39400190114974976
			],
			"type":"VEC3"
		},
		{
			"bufferView":1,
			"componentType":5126,
			"count":5598,
			"type":"VEC2"
		},
		{
			"bufferView":2,
			"componentType":5126,
			"count":5598,
			"type":"VEC3"
		},
		{
			"bufferView":3,
			"componentType":5123,
			"count":5958,
			"type":"SCALAR"
		},
		{
			"bufferView":5,
			"componentType":5126,
			"count":10476,
			"max":[
				0.6229098439216614,
				0.14989057183265686,
				0.5781593322753906
			],
			"min":[
				-0.6236202120780945,
				-0.15362036228179932,
				-0.5748431086540222
			],
			"type":"VEC3"
		},
		{
			"bufferView":6,
			"componentType":5126,
			"count":10476,
			"type":"VEC2"
		},
		{
			"bufferView":7,
			"componentType":5126,
			"count":10476,
			"type":"VEC3"
		},
		{
			"bufferView":8,
			"componentType":5123,
			"count":11922,
			"type":"SCALAR"
		},
		{
			"bufferView":9,
			"componentType":5126,
			"count":976,
			"max":[
				0.7315958738327026,
				0.08084689825773239,
				1.4733332395553589
			],
			"min":[
				-0.7445063591003418,
				-0.08082518726587296,
				-1.472179889678955
			],
			"type":"VEC3"
		},
		{
			"bufferView":10,
			"componentType":5126,
			"count":976,
			"type":"VEC2"
		},
		{
			"bufferView":11,
			"componentType":5126,
			"count":976,
			"type":"VEC3"
		},
		{
			"bufferView":12,
			"componentType":5123,
			"count":1008,
			"type":"SCALAR"
		},
		{
			"bufferView":14,
			"componentType":5126,
			"count":10474,
			"max":[
				0.6425506472587585,
				0.14985686540603638,
				0.5780237913131714
			],
			"min":[
				-0.6445523500442505,
				-0.1536540687084198,
				-0.5749786496162415
			],
			"type":"VEC3"
		},
		{
			"bufferView":15,
			"componentType":5126,
			"count":10474,
			"type":"VEC2"
		},
		{
			"bufferView":16,
			"componentType":5126,
			"count":10474,
			"type":"VEC3"
		},
		{
			"bufferView":17,
			"componentType":5123,
			"count":11922,
			"type":"SCALAR"
		},
		{
			"bufferView":18,
			"componentType":5126,
			"count":6564,
			"max":[
				1.6036601066589355,
				0.45072001218795776,
				0.873505711555481
			],
			"min":[
				-1.4771740436553955,
				-0.316464900970459,
				-0.7543156147003174
			],
			"type":"VEC3"
		},
		{
			"bufferView":19,
			"componentType":5126,
			"count":6564,
			"type":"VEC2"
		},
		{
			"bufferView":20,
			"componentType":5126,
			"count":6564,
			"type":"VEC3"
		},
		{
			"bufferView":21,
			"componentType":5123,
			"count":6954,
			"type":"SCALAR"
		}
	],
	"bufferViews":[
		{
			"buffer":0,
			"byteLength":67176,
			"byteOffset":0,
			"target":34962
		},
		{
			"buffer":0,
			"byteLength":44784,
			"byteOffset":67176,
			"target":34962
		},
		{
			"buffer":0,
			"byteLength":67176,
			"byteOffset":111960,
			"target":34962
		},
		{
			"buffer":0,
			"byteLength":11916,
			"byteOffset":179136,
			"target":34963
		},
		{
			"buffer":0,
			"byteLength":203496,
			"byteOffset":191052
		},
		{
			"buffer":0,
			"byteLength":125712,
			"byteOffset":394548,
			"target":34962
		},
		{
			"buffer":0,
			"byteLength":83808,
			"byteOffset":520260,
			"target":34962
		},
		{
			"buffer":0,
			"byteLength":125712,
			"byteOffset":604068,
			"target":34962
		},
		{
			"buffer":0,
			"byteLength":23844,
			"byteOffset":729780,
			"target":34963
		},
		{
			"buffer":0,
			"byteLength":11712,
			"byteOffset":753624,
			"target":34962
		},
		{
			"buffer":0,
			"byteLength":7808,
			"byteOffset":765336,
			"target":34962
		},
		{
			"buffer":0,
			"byteLength":11712,
			"byteOffset":773144,
			"target":34962
		},
		{
			"buffer":0,
			"byteLength":2016,
			"byteOffset":784856,
			"target":34963
		},
		{
			"buffer":0,
			"byteLength":53030,
			"byteOffset":786872
		},
		{
			"buffer":0,
			"byteLength":125688,
			"byteOffset":839904,
			"target":34962
		},
		{
			"buffer":0,
			"byteLength":83792,
			"byteOffset":965592,
			"target":34962
		},
		{
			"buffer":0,
			"byteLength":125688,
			"byteOffset":1049384,
			"target":34962
		},
		{
			"buffer":0,
			"byteLength":23844,
			"byteOffset":1175072,
			"target":34963
		},
		{
			"buffer":0,
			"byteLength":78768,
			"byteOffset":1198916,
			"target":34962
		},
		{
			"buffer":0,
			"byteLength":52512,
			"byteOffset":1277684,
			"target":34962
		},
		{
			"buffer":0,
			"byteLength":78768,
			"byteOffset":1330196,
			"target":34962
		},
		{
			"buffer":0,
			"byteLength":13908,
			"byteOffset":1408964,
			"target":34963
		}
	],
	"samplers":[
		{
			"magFilter":9729,
			"minFilter":9987
		}
	],
	"buffers":[
		{
			"byteLength":1422872,
			"uri":"data:application/octet-stream;base64,"
		}
	]
}
