{
	"asset":{
		"generator":"Khronos glTF Blender I/O v3.5.30",
		"version":"2.0"
	},
	"extensionsUsed":[
		"KHR_materials_specular",
		"KHR_materials_ior"
	],
	"scene":0,
	"scenes":[
		{
			"name":"Scene",
			"nodes":[
				0
			]
		}
	],
	"nodes":[
		{
			"mesh":0,
			"name":"Cube",
			"rotation":[
				0.6469102501869202,
				4.852135316468775e-05,
				0,
				0.7625661492347717
			]
		}
	],
	"materials":[
		{
			"doubleSided":true,
			"extensions":{
				"KHR_materials_specular":{
					"specularColorFactor":[
						0,
						0,
						0
					]
				},
				"KHR_materials_ior":{
					"ior":1.4500000476837158
				}
			},
			"name":"Material.001",
			"normalTexture":{
				"index":0,
				"scale":0.5
			},
			"pbrMetallicRoughness":{
				"baseColorTexture":{
					"index":1
				},
				"metallicFactor":0,
				"roughnessFactor":0.5
			}
		}
	],
	"meshes":[
		{
			"name":"Cube.001",
			"primitives":[
				{
					"attributes":{
						"POSITION":0,
						"TEXCOORD_0":1,
						"NORMAL":2
					},
					"indices":3,
					"material":0
				}
			]
		}
	],
	"textures":[
		{
			"sampler":0,
			"source":0
		},
		{
			"sampler":0,
			"source":1
		}
	],
	"images":[
		{
			"bufferView":4,
			"mimeType":"image/png",
			"name":"blueClothNormal"
		},
		{
			"bufferView":5,
			"mimeType":"image/png",
			"name":"blueClothAlbedo"
		}
	],
	"accessors":[
		{
			"bufferView":0,
			"componentType":5126,
			"count":37460,
			"max":[
				0.16549888253211975,
				0.0942210778594017,
				0.14669081568717957
			],
			"min":[
				-0.165485680103302,
				-0.10417952388525009,
				-0.1466812938451767
			],
			"type":"VEC3"
		},
		{
			"bufferView":1,
			"componentType":5126,
			"count":37460,
			"type":"VEC2"
		},
		{
			"bufferView":2,
			"componentType":5126,
			"count":37460,
			"type":"VEC3"
		},
		{
			"bufferView":3,
			"componentType":5123,
			"count":50688,
			"type":"SCALAR"
		}
	],
	"bufferViews":[
		{
			"buffer":0,
			"byteLength":449520,
			"byteOffset":0,
			"target":34962
		},
		{
			"buffer":0,
			"byteLength":299680,
			"byteOffset":449520,
			"target":34962
		},
		{
			"buffer":0,
			"byteLength":449520,
			"byteOffset":749200,
			"target":34962
		},
		{
			"buffer":0,
			"byteLength":101376,
			"byteOffset":1198720,
			"target":34963
		},
		{
			"buffer":0,
			"byteLength":253904,
			"byteOffset":1300096
		},
		{
			"buffer":0,
			"byteLength":203496,
			"byteOffset":1554000
		}
	],
	"samplers":[
		{
			"magFilter":9729,
			"minFilter":9987
		}
	],
	"buffers":[
		{
			"byteLength":1757496,
			"uri":"data:application/octet-stream;base64,"
		}
	]
}
